<?xml version="1.0" encoding="UTF-8"?>
<svg width="93px" height="113px" viewBox="0 0 93 113" version="1.1" xmlns="http://www.w3.org/2000/svg" xmlns:xlink="http://www.w3.org/1999/xlink">
    <!-- Generator: Sketch 62 (91390) - https://sketch.com -->
    <title>icon/icon_list copy</title>
    <desc>Created with Sketch.</desc>
    <defs>
        <path d="M15.5,69.1875 L15.5,71.75 L0,71.75 L0,69.1875 L15.5,69.1875 Z M20.6666667,58.9375 L20.6666667,61.5 L0,61.5 L0,58.9375 L20.6666667,58.9375 Z M36.1666667,46.125 L36.1666667,51.25 L0,51.25 L0,46.125 L36.1666667,46.125 Z M51.6666667,33.3125 L51.6666667,38.4375 L0,38.4375 L0,33.3125 L51.6666667,33.3125 Z M59.4166667,17.9375 L59.4166667,25.625 L0,25.625 L0,17.9375 L59.4166667,17.9375 Z M67.1666667,0 L67.1666667,10.25 L0,10.25 L0,0 L67.1666667,0 Z" id="path-1"></path>
        <linearGradient x1="0%" y1="4.357493%" x2="100%" y2="99.1968002%" id="linearGradient-3">
            <stop stop-color="#FF5B00" offset="0%"></stop>
            <stop stop-color="#2D0CC1" offset="100%"></stop>
        </linearGradient>
    </defs>
    <g id="layout" stroke="none" stroke-width="1" fill="none" fill-rule="evenodd">
        <g id="PC_top" transform="translate(-582.000000, -457.000000)">
            <g id="menu-:-テキストサンプル" transform="translate(566.000000, 452.000000)">
                <g id="icon/icon_list" transform="translate(0.500000, 0.000000)">
                    <path d="M108,117.375 L16,117.375 L16,5.625 L79.8774114,5.625 L108,33.5207936 L108,117.375 Z" id="Rectangle" stroke="#AAAAAA"></path>
                    <g id="on/off" fill-rule="evenodd" transform="translate(28.416667, 30.750000)">
                        <mask id="mask-2" fill="white">
                            <use xlink:href="#path-1"></use>
                        </mask>
                        <use id="Combined-Shape" fill="#A6A6A6" xlink:href="#path-1"></use>
                        <g id="#color/gradation/orange" mask="url(#mask-2)" fill="url(#linearGradient-3)">
                            <g transform="translate(-28.416667, -30.750000)" id="base">
                                <rect x="0" y="0" width="124" height="123"></rect>
                            </g>
                        </g>
                    </g>
                    <path d="M107.285948,32.8125 L97.753394,32.8125 L80.5833333,32.8125 L80.5833333,6.32522906 L107.285948,32.8125 Z" id="Rectangle" stroke="#AAAAAA" fill="#EAEAEA" fill-rule="evenodd"></path>
                </g>
            </g>
        </g>
    </g>
</svg>