<?xml version="1.0" encoding="UTF-8"?>
<svg width="93px" height="113px" viewBox="0 0 93 113" version="1.1" xmlns="http://www.w3.org/2000/svg" xmlns:xlink="http://www.w3.org/1999/xlink">
    <!-- Generator: Sketch 62 (91390) - https://sketch.com -->
    <title>icon/icon_layout copy</title>
    <desc>Created with Sketch.</desc>
    <defs>
        <path d="M15.25,71.75 L15.25,74.3125 L0,74.3125 L0,71.75 L15.25,71.75 Z M38.125,71.75 L38.125,74.3125 L22.875,74.3125 L22.875,71.75 L38.125,71.75 Z M61,71.75 L61,74.3125 L45.75,74.3125 L45.75,71.75 L61,71.75 Z M20.3333333,66.625 L20.3333333,69.1875 L0,69.1875 L0,66.625 L20.3333333,66.625 Z M43.2083333,66.625 L43.2083333,69.1875 L22.875,69.1875 L22.875,66.625 L43.2083333,66.625 Z M66.0833333,66.625 L66.0833333,69.1875 L45.75,69.1875 L45.75,66.625 L66.0833333,66.625 Z M20.3333333,51.25 L20.3333333,64.0625 L0,64.0625 L0,51.25 L20.3333333,51.25 Z M43.2083333,51.25 L43.2083333,64.0625 L22.875,64.0625 L22.875,51.25 L43.2083333,51.25 Z M66.0833333,51.25 L66.0833333,64.0625 L45.75,64.0625 L45.75,51.25 L66.0833333,51.25 Z M40.6666667,38.4375 L40.6666667,41 L0,41 L0,38.4375 L40.6666667,38.4375 Z M66.0833333,20.5 L66.0833333,38.4375 L43.2083333,38.4375 L43.2083333,20.5 L66.0833333,20.5 Z M40.6666667,33.3125 L40.6666667,35.875 L0,35.875 L0,33.3125 L40.6666667,33.3125 Z M40.6666667,28.1875 L40.6666667,30.75 L0,30.75 L0,28.1875 L40.6666667,28.1875 Z M40.6666667,20.5 L40.6666667,25.625 L0,25.625 L0,20.5 L40.6666667,20.5 Z M66.0833333,0 L66.0833333,10.25 L0,10.25 L0,0 L66.0833333,0 Z" id="path-1"></path>
        <linearGradient x1="0.809703219%" y1="3.61232153%" x2="99.1902968%" y2="100%" id="linearGradient-3">
            <stop stop-color="#FF5B00" offset="0%"></stop>
            <stop stop-color="#2D0CC1" offset="100%"></stop>
        </linearGradient>
    </defs>
    <g id="layout" stroke="none" stroke-width="1" fill="none" fill-rule="evenodd">
        <g id="PC_top" transform="translate(-764.000000, -457.000000)">
            <g id="menu-:-レイアウトサンプル" transform="translate(749.500000, 452.000000)">
                <g id="icon/icon_layout">
                    <path d="M106.25,117.375 L15.75,117.375 L15.75,5.625 L81.1250301,5.625 L106.25,30.9559123 L106.25,117.375 Z" id="Rectangle" stroke="#AAAAAA"></path>
                    <g id="on/off" fill-rule="evenodd" transform="translate(27.958333, 28.187500)">
                        <mask id="mask-2" fill="white">
                            <use xlink:href="#path-1"></use>
                        </mask>
                        <use id="Combined-Shape" fill="#A6A6A6" xlink:href="#path-1"></use>
                        <g id="#color/gradation/orange" mask="url(#mask-2)" fill="url(#linearGradient-3)">
                            <g transform="translate(-27.958333, -28.187500)" id="base">
                                <rect x="0" y="0" width="122" height="123"></rect>
                            </g>
                        </g>
                    </g>
                    <path d="M105.549827,30.25 L97.137933,30.25 L81.8333333,30.25 L81.8333333,6.33910903 L105.549827,30.25 Z" id="Rectangle" stroke="#AAAAAA" fill="#EAEAEA" fill-rule="evenodd"></path>
                </g>
            </g>
        </g>
    </g>
</svg>