<?xml version="1.0" encoding="UTF-8"?>
<svg width="522px" height="10px" viewBox="0 0 522 10" version="1.1" xmlns="http://www.w3.org/2000/svg" xmlns:xlink="http://www.w3.org/1999/xlink">
    <title>arrow</title>
    <g id="layout" stroke="none" stroke-width="1" fill="none" fill-rule="evenodd" opacity="0.7">
        <g id="overray_max" transform="translate(-79.000000, -159.000000)" fill="#000000" fill-rule="nonzero">
            <g id="guide" transform="translate(80.000000, 152.000000)">
                <path id="arrow" d="M7.72731374,7.56421633 C7.99263822,7.43187253 8.31501207,7.53967467 8.44735587,7.80499916 C8.4845572,7.87958084 8.50388308,7.9617997 8.50380301,8.04514453 L8.50380301,8.04514453 L8.5,11.507 L520.50048,12.0000002 C520.776623,12.0002655 521.000265,12.2243381 521,12.5004803 C520.999764,12.7459401 520.822693,12.9499186 520.589403,12.9920304 L520.49952,12.9999998 L8.499,12.507 L8.49618903,15.9713035 C8.49593269,16.238153 8.30102824,16.4593427 8.04590186,16.5007045 L7.95881369,16.5076474 C7.87546887,16.5075674 7.79328728,16.4880836 7.71877721,16.450739 L7.71877721,16.450739 L-0.203574792,12.4800455 C-0.468644526,12.3471922 -0.575827117,12.0246119 -0.44297381,11.7595421 C-0.39092548,11.655695 -0.306599203,11.5715306 -0.202652252,11.5196818 L-0.202652252,11.5196818 Z"></path>
            </g>
        </g>
    </g>
</svg>