<?xml version="1.0" encoding="UTF-8"?>
<svg width="521px" height="10px" viewBox="0 0 521 10" version="1.1" xmlns="http://www.w3.org/2000/svg" xmlns:xlink="http://www.w3.org/1999/xlink">
    <title>arrow</title>
    <g id="layout" stroke="none" stroke-width="1" fill="none" fill-rule="evenodd" opacity="0.7">
        <g id="overray_max" transform="translate(-840.000000, -159.000000)" fill="#000000" fill-rule="nonzero">
            <g id="guide" transform="translate(80.000000, 152.000000)">
                <path id="arrow" d="M1271.55264,7.80501478 C1271.68498,7.53969005 1272.00735,7.43188731 1272.27268,7.56423062 L1272.27268,7.56423062 L1280.20265,11.5196815 C1280.3066,11.57153 1280.39092,11.6556943 1280.44297,11.7595413 C1280.57583,12.0246108 1280.46865,12.3471914 1280.20358,12.4800452 L1280.20358,12.4800452 L1272.28123,16.4507533 C1272.20672,16.488098 1272.12454,16.5075819 1272.04119,16.5076621 C1271.7447,16.5079475 1271.5041,16.2678186 1271.50382,15.9713192 L1271.50382,15.9713192 L1271.5,12.507 L760.500481,12.9999998 C760.224339,13.0002655 760.000266,12.7766235 760,12.5004812 C759.999764,12.2550215 760.176443,12.0507028 760.409651,12.0081424 L760.499519,12.0000002 L1271.499,11.507 L1271.49619,8.04516025 C1271.49614,7.98959703 1271.50471,7.93453423 1271.52145,7.88190109 Z"></path>
            </g>
        </g>
    </g>
</svg>