<?xml version="1.0" encoding="UTF-8"?>
<svg width="48px" height="48px" viewBox="0 0 48 48" version="1.1" xmlns="http://www.w3.org/2000/svg" xmlns:xlink="http://www.w3.org/1999/xlink">
    <!-- Generator: Sketch 61.1 (89650) - https://sketch.com -->
    <title>icon/icon_dash_board</title>
    <desc>Created with Sketch.</desc>
    <defs>
        <path d="M24,27.958 C21.846,27.958 20.1,26.186 20.1,24 C20.1,21.815 21.846,20.043 24,20.043 C26.154,20.043 27.9,21.815 27.9,24 C27.9,26.186 26.154,27.958 24,27.958 L24,27.958 Z M21.874,11 C20.571,11.219 19.335,11.63 18.193,12.211 L18.498,15.057 C18.086,15.318 17.69,15.602 17.32,15.917 L14.744,14.743 C13.837,15.678 13.071,16.75 12.468,17.924 L14.362,20.046 C14.182,20.498 14.037,20.966 13.919,21.446 L11.16,22.033 C11.065,22.676 11,23.33 11,24 C11,24.671 11.065,25.325 11.16,25.968 L13.919,26.554 C14.037,27.034 14.182,27.503 14.362,27.955 L12.468,30.076 C13.07,31.25 13.836,32.323 14.744,33.257 L17.319,32.083 C17.69,32.399 18.086,32.683 18.498,32.944 L18.192,35.79 C19.334,36.371 20.571,36.782 21.874,37 L23.276,34.517 C23.517,34.533 23.756,34.554 24,34.554 C24.244,34.554 24.483,34.533 24.724,34.517 L26.126,37 C27.429,36.782 28.665,36.371 29.807,35.79 L29.502,32.944 C29.914,32.683 30.31,32.399 30.68,32.084 L33.256,33.258 C34.163,32.323 34.929,31.251 35.532,30.077 L33.638,27.955 C33.818,27.503 33.963,27.035 34.081,26.555 L36.84,25.968 C36.935,25.325 37,24.671 37,24 C37,23.33 36.935,22.676 36.84,22.033 L34.081,21.447 C33.963,20.967 33.818,20.498 33.638,20.046 L35.532,17.925 C34.93,16.75 34.164,15.678 33.256,14.744 L30.681,15.917 C30.31,15.602 29.914,15.318 29.502,15.057 L29.808,12.211 C28.666,11.63 27.429,11.219 26.126,11 L24.724,13.484 C24.483,13.468 24.244,13.447 24,13.447 C23.756,13.447 23.517,13.468 23.276,13.484 L21.874,11 Z" id="path-1"></path>
        <linearGradient x1="0%" y1="3.61232153%" x2="100%" y2="100%" id="linearGradient-3">
            <stop stop-color="#FF5B00" offset="0%"></stop>
            <stop stop-color="#2D0CC1" offset="100%"></stop>
        </linearGradient>
    </defs>
    <g id="icon/icon_dash_board" stroke="none" stroke-width="1" fill="none" fill-rule="evenodd">
        <rect id="frame" stroke="#AAAAAA" fill="#FFFFFF" x="4.5" y="4.5" width="39" height="39" rx="6"></rect>
        <mask id="mask-2" fill="white">
            <use xlink:href="#path-1"></use>
        </mask>
        <use id="Fill-3" fill="#A2A2A2" xlink:href="#path-1"></use>
        <g id="#color/gradation/orange" mask="url(#mask-2)" fill="#aaaaaa">
            <g transform="translate(4.000000, 4.000000)" id="base">
                <rect x="0" y="0" width="40" height="40"></rect>
            </g>
        </g>
    </g>
</svg>