<?xml version="1.0" encoding="UTF-8"?>
<svg width="48px" height="48px" viewBox="0 0 48 48" version="1.1" xmlns="http://www.w3.org/2000/svg" xmlns:xlink="http://www.w3.org/1999/xlink">
    <!-- Generator: Sketch 61.1 (89650) - https://sketch.com -->
    <title>icon/icon_viewpoint</title>
    <desc>Created with Sketch.</desc>
    <defs>
        <path d="M32,8 L32,40 L16,40 L16,8 L32,8 Z M10.3284271,20.9644661 L11.0355339,21.6715729 L8.70689322,23.9994661 L14,24 L14,25 L8.70689322,24.9994661 L11.0355339,27.3284271 L10.3284271,28.0355339 L7.29289322,24.9994661 L7,25 L6.99989322,24.7064661 L6.79289322,24.5 L6.99989322,24.2924661 L7,24 L7.29289322,23.9994661 L10.3284271,20.9644661 Z M37.7071068,20.9644661 L40.742,23.9994661 L41,24 L41,24.2574661 L41.2426407,24.5 L41,24.7414661 L41,25 L40.742,24.9994661 L40.5355339,25.2071068 L37.7071068,28.0355339 L37,27.3284271 L39.328,24.9994661 L34,25 L34,24 L39.328,23.9994661 L37,21.6715729 L37.7071068,20.9644661 Z" id="path-1"></path>
        <linearGradient x1="0%" y1="3.61232153%" x2="100%" y2="100%" id="linearGradient-3">
            <stop stop-color="#FF5B00" offset="0%"></stop>
            <stop stop-color="#2D0CC1" offset="100%"></stop>
        </linearGradient>
    </defs>
    <g id="icon/icon_viewpoint" stroke="none" stroke-width="1" fill="none" fill-rule="evenodd">
        <rect id="frame" stroke="#AAAAAA" fill="#FFFFFF" x="4.5" y="4.5" width="39" height="39" rx="6"></rect>
        <mask id="mask-2" fill="white">
            <use xlink:href="#path-1"></use>
        </mask>
        <use id="Combined-Shape" fill="#A6A6A6" xlink:href="#path-1"></use>
        <g id="#color/gradation/orange" mask="url(#mask-2)" fill="url(#linearGradient-3)">
            <rect id="base" x="0" y="0" width="48" height="48"></rect>
        </g>
        <text id="A" mask="url(#mask-2)" font-family="HiraginoSans-W7, Hiragino Sans" font-size="13" font-weight="bold" fill="#FFFFFF">
            <tspan x="19.0595" y="29">A</tspan>
        </text>
    </g>
</svg>