<svg xmlns="http://www.w3.org/2000/svg" viewBox="0 0 155.67 48.67"><defs><style>.cls-1{fill:#040000;}</style></defs><path class="cls-1" d="M11.22,6C.09,6,0,14.58,0,16.33v13.5H8.16V16.6c0-2.89,2.1-2.54,3.06-2.54Z"/><path class="cls-1" d="M37.3,30h7.93V8.74H37.3Z"/><path class="cls-1" d="M37.37,7h7.93V0H37.37Z"/><path class="cls-1" d="M35.85,17.71v-.24h0a12.62,12.62,0,1,0-7.08,12.34V30h7.1V19.16c0-.24,0-.48,0-.72S35.87,18,35.85,17.71ZM23.23,22.9a4.46,4.46,0,1,1,4.46-4.46A4.46,4.46,0,0,1,23.23,22.9Z"/><path class="cls-1" d="M82.57,5.79A12.6,12.6,0,0,0,78,6.65V0H69.93V18.44A12.64,12.64,0,1,0,82.57,5.79Zm0,17.1A4.46,4.46,0,1,1,87,18.44,4.46,4.46,0,0,1,82.57,22.9Z"/><path class="cls-1" d="M108.75,5.79a12.64,12.64,0,1,0,12.64,12.64A12.64,12.64,0,0,0,108.75,5.79Zm0,17.1a4.46,4.46,0,1,1,4.46-4.46A4.46,4.46,0,0,1,108.75,22.9Z"/><path class="cls-1" d="M57.85,6.17c-8.85,0-11.22,7.89-11.22,10.69V30h8.22V17.08a3,3,0,1,1,6,0V30h8.22V16.86C69.07,14.05,66.7,6.17,57.85,6.17Z"/><path class="cls-1" d="M147.43,7V20.68a1.8,1.8,0,0,1-2,2c-1.35,0-1.86-1-1.86-2.1V7h-8.68V20.63c0,1.11-.5,2.1-1.85,2.1a1.8,1.8,0,0,1-2-2V7h-8.24V21.74c0,1.57,1.52,9.29,10,9.29a10.12,10.12,0,0,0,6.43-2.1,10.09,10.09,0,0,0,6.42,2.1c8.53,0,10.05-7.71,10.05-9.29V7Z"/><path class="cls-1" d="M7.93,35.58V34.13H6.12v1.46Z"/><path class="cls-1" d="M40.58,37.18c-3.58,0-3.25,2.55-3.25,2.55h1.85a1.54,1.54,0,0,1,1.62-1.46c1.29,0,1.41,1.31,1.44,1.67,0,0,0,.29,0,.66-.6,0-3.16-.1-4,.37a2.6,2.6,0,0,0-1.46,2.19c0,.79.38,2.45,2.9,2.45a3,3,0,0,0,2.65-1.43c0,.77,0,1.34,0,1.34h1.86s-.09-5.19-.09-5.44S44.17,37.18,40.58,37.18Zm-.25,7.23a1.35,1.35,0,0,1-1.09-2.26c.68-.72,3-.53,3-.53s.06.57.06.74S41.91,44.41,40.33,44.41Z"/><path class="cls-1" d="M111.59,37.18c-3.58,0-3.25,2.55-3.25,2.55h1.85a1.53,1.53,0,0,1,1.61-1.46c1.29,0,1.41,1.31,1.44,1.67,0,0,0,.29,0,.66-.61,0-3.16-.1-4,.37a2.6,2.6,0,0,0-1.46,2.19c0,.79.38,2.45,2.9,2.45a3,3,0,0,0,2.65-1.43c0,.77,0,1.34,0,1.34h1.85s-.09-5.19-.09-5.44S115.18,37.18,111.59,37.18Zm-.25,7.23a1.35,1.35,0,0,1-1.1-2.26c.68-.72,3-.53,3-.53s.06.57.06.74S112.92,44.41,111.34,44.41Z"/><path class="cls-1" d="M6.12,46.43c0,.42-.63,1-1.67,1v1a7.21,7.21,0,0,0,1.14.07,2.94,2.94,0,0,0,1.91-.57,2.26,2.26,0,0,0,.43-1.44V37.52H6.12Z"/><path class="cls-1" d="M77,37.57a3.6,3.6,0,0,0-2.55,1.35v-1h-1.9V48.67h1.9v-4A3.61,3.61,0,0,0,77,46c1.68,0,3.24-1.24,3.24-4.06C80.22,38.84,78.67,37.57,77,37.57Zm-.71,7c-1.66,0-1.84-2-1.84-2.34a4.51,4.51,0,0,0,0-.47l0-.47S74.62,39,76.27,39s2.08,1.56,2.08,2.81S78,44.59,76.27,44.59Z"/><path class="cls-1" d="M148.41,37.52a3.41,3.41,0,0,0-2.69,1.24V37.63h-1.9v7.93h1.9V40.64a1.72,1.72,0,0,1,1.85-1.82,1.83,1.83,0,0,1,1.75,1.67v5.08h1.86V40.49A2.73,2.73,0,0,0,148.41,37.52Z"/></svg>
